<svg width="100" height="100" viewBox="0 0 100 100" fill="none" xmlns="http://www.w3.org/2000/svg">
<path d="M96.5816 86.5033L96.1623 86.0833L86.002 96.1944L86.2494 96.4391L88.9462 99.1158C90.6724 100.837 94.3486 99.9677 97.158 97.1775C99.9674 94.3874 100.839 90.7261 99.1109 89.009L96.592 86.5033H96.5816Z" fill="#616E7D"/>
<path d="M93.6745 83.6516L83.5098 93.7569L85.9961 96.1948L96.1624 86.0836L95.8719 85.7947L95.8631 85.7991L93.6745 83.6516Z" fill="#AAD4C8"/>
<path d="M39.6085 0C17.7335 0 0 17.643 0 39.4056C0 61.1682 17.7335 78.8052 39.6085 78.8052C47.4098 78.8159 55.0388 76.5235 61.5294 72.2182L83.511 93.7568L93.6758 83.6515L71.8379 62.2559C76.6423 55.597 79.2253 47.6064 79.2229 39.41C79.2229 17.643 61.4894 0 39.6085 0ZM40.1508 67.1096C24.7703 67.1096 12.294 54.7079 12.294 39.3997C12.294 24.0914 24.7658 11.6898 40.1508 11.6898C47.5389 11.6898 54.6243 14.6092 59.8485 19.8058C65.0726 25.0024 68.0075 32.0505 68.0075 39.3997C68.0031 54.7079 55.5342 67.1096 40.1508 67.1096Z" fill="#616E7D"/>
<path d="M44.936 22.2611L25.4808 46.6105C25.1701 46.9996 25.0276 47.4956 25.0846 47.9893C25.1415 48.4829 25.3933 48.9339 25.7845 49.2429C26.1757 49.5519 26.6743 49.6937 27.1706 49.637C27.6669 49.5804 28.1203 49.3299 28.4309 48.9408L47.8847 24.5914C48.1847 24.2015 48.3189 23.71 48.2583 23.2228C48.1977 22.7355 47.9472 22.2913 47.5608 21.9859C47.1743 21.6805 46.6827 21.5382 46.1918 21.5897C45.701 21.6411 45.25 21.8822 44.936 22.2611Z" fill="#82BFAB"/>
<path d="M53.096 30.3778L33.6393 54.7168C33.4855 54.9093 33.3713 55.1301 33.3032 55.3665C33.2352 55.6029 33.2146 55.8503 33.2426 56.0946C33.2707 56.3389 33.3469 56.5753 33.4668 56.7903C33.5867 57.0054 33.748 57.1948 33.9416 57.3478C34.1351 57.5008 34.357 57.6144 34.5946 57.6821C34.8323 57.7498 35.081 57.7703 35.3266 57.7423C35.5722 57.7144 35.8099 57.6386 36.0261 57.5194C36.2422 57.4001 36.4327 57.2396 36.5865 57.0471L56.0432 32.7066C56.197 32.5141 56.3111 32.2934 56.379 32.057C56.447 31.8207 56.4675 31.5733 56.4394 31.3291C56.4112 31.0848 56.335 30.8485 56.215 30.6335C56.0951 30.4186 55.9337 30.2293 55.7402 30.0764C55.5467 29.9235 55.3248 29.81 55.0872 29.7423C54.8496 29.6747 54.6009 29.6543 54.3554 29.6823C54.1098 29.7103 53.8723 29.7862 53.6562 29.9055C53.4401 30.0248 53.2498 30.1853 53.096 30.3778Z" fill="#82BFAB"/>
</svg>
