<svg width="112" height="20" viewBox="0 0 112 20" fill="none" xmlns="http://www.w3.org/2000/svg">
<path d="M32.1229 11.8641C32.5302 11.9914 32.8441 12.1865 33.0647 12.4496C33.2938 12.7126 33.4084 13.0265 33.4084 13.3914C33.4084 13.8241 33.2599 14.2059 32.9629 14.5368C32.666 14.8592 32.2587 15.1096 31.7411 15.2877C31.2235 15.4659 30.6381 15.555 29.9847 15.555C29.4502 15.555 28.9241 15.4999 28.4066 15.3896C27.889 15.2792 27.4096 15.1138 26.9684 14.8932L27.5029 13.5059C28.2241 13.8538 29.0217 14.0277 29.8957 14.0277C30.3623 14.0277 30.7272 13.9599 30.9902 13.8241C31.2617 13.6799 31.3975 13.4805 31.3975 13.2259C31.3975 13.0053 31.3041 12.8399 31.1175 12.7296C30.9308 12.6108 30.6593 12.5514 30.3029 12.5514H28.9029V11.3168H30.1247C30.4726 11.3168 30.7399 11.2617 30.9266 11.1514C31.1132 11.0411 31.2066 10.8799 31.2066 10.6677C31.2066 10.4471 31.0878 10.2774 30.8502 10.1586C30.6211 10.0399 30.2902 9.98046 29.8575 9.98046C29.1957 9.98046 28.4744 10.1374 27.6938 10.4514L27.2102 9.07683C28.1605 8.66107 29.0854 8.45319 29.9847 8.45319C30.6041 8.45319 31.1557 8.52955 31.6393 8.68228C32.1314 8.83501 32.5175 9.05986 32.7975 9.35683C33.0775 9.64531 33.2175 9.9847 33.2175 10.375C33.2175 10.6974 33.1199 10.9902 32.9247 11.2532C32.7296 11.5077 32.4623 11.7114 32.1229 11.8641ZM42.5272 13.7986V16.9041H40.6817V15.4277H35.8708V16.9041H34.0254V13.7986H34.3054C34.7296 13.7902 35.0223 13.5399 35.1835 13.0477C35.3447 12.5556 35.4466 11.8556 35.489 10.9477L35.5781 8.58046H41.5472V13.7986H42.5272ZM37.2835 11.0877C37.2581 11.7835 37.2029 12.352 37.1181 12.7932C37.0417 13.2344 36.8932 13.5696 36.6726 13.7986H39.5617V10.2096H37.3217L37.2835 11.0877ZM46.9839 15.5296C46.2627 15.5296 45.6136 15.3811 45.0366 15.0841C44.4681 14.7786 44.0227 14.3586 43.7003 13.8241C43.3778 13.2896 43.2166 12.6829 43.2166 12.0041C43.2166 11.3253 43.3778 10.7186 43.7003 10.1841C44.0227 9.64955 44.4681 9.23379 45.0366 8.93683C45.6136 8.63137 46.2627 8.47864 46.9839 8.47864C47.7051 8.47864 48.35 8.63137 48.9185 8.93683C49.4869 9.23379 49.9324 9.64955 50.2548 10.1841C50.5772 10.7186 50.7385 11.3253 50.7385 12.0041C50.7385 12.6829 50.5772 13.2896 50.2548 13.8241C49.9324 14.3586 49.4869 14.7786 48.9185 15.0841C48.35 15.3811 47.7051 15.5296 46.9839 15.5296ZM46.9839 13.9005C47.493 13.9005 47.9088 13.7308 48.2312 13.3914C48.5621 13.0435 48.7275 12.5811 48.7275 12.0041C48.7275 11.4271 48.5621 10.9689 48.2312 10.6296C47.9088 10.2817 47.493 10.1077 46.9839 10.1077C46.4748 10.1077 46.0548 10.2817 45.7239 10.6296C45.393 10.9689 45.2275 11.4271 45.2275 12.0041C45.2275 12.5811 45.393 13.0435 45.7239 13.3914C46.0548 13.7308 46.4748 13.9005 46.9839 13.9005ZM56.1386 8.47864C56.775 8.47864 57.3519 8.62713 57.8695 8.9241C58.3956 9.21258 58.8071 9.6241 59.104 10.1586C59.401 10.6847 59.5495 11.2999 59.5495 12.0041C59.5495 12.7083 59.401 13.3277 59.104 13.8623C58.8071 14.3883 58.3956 14.7999 57.8695 15.0968C57.3519 15.3853 56.775 15.5296 56.1386 15.5296C55.2647 15.5296 54.5774 15.2538 54.0768 14.7023V17.8968H52.0913V8.58046H53.9877V9.36955C54.4798 8.77561 55.1968 8.47864 56.1386 8.47864ZM55.795 13.9005C56.304 13.9005 56.7198 13.7308 57.0422 13.3914C57.3731 13.0435 57.5386 12.5811 57.5386 12.0041C57.5386 11.4271 57.3731 10.9689 57.0422 10.6296C56.7198 10.2817 56.304 10.1077 55.795 10.1077C55.2859 10.1077 54.8659 10.2817 54.535 10.6296C54.2125 10.9689 54.0513 11.4271 54.0513 12.0041C54.0513 12.5811 54.2125 13.0435 54.535 13.3914C54.8659 13.7308 55.2859 13.9005 55.795 13.9005ZM64.1483 15.5296C63.4271 15.5296 62.778 15.3811 62.201 15.0841C61.6326 14.7786 61.1871 14.3586 60.8647 13.8241C60.5423 13.2896 60.381 12.6829 60.381 12.0041C60.381 11.3253 60.5423 10.7186 60.8647 10.1841C61.1871 9.64955 61.6326 9.23379 62.201 8.93683C62.778 8.63137 63.4271 8.47864 64.1483 8.47864C64.8695 8.47864 65.5144 8.63137 66.0829 8.93683C66.6514 9.23379 67.0968 9.64955 67.4192 10.1841C67.7417 10.7186 67.9029 11.3253 67.9029 12.0041C67.9029 12.6829 67.7417 13.2896 67.4192 13.8241C67.0968 14.3586 66.6514 14.7786 66.0829 15.0841C65.5144 15.3811 64.8695 15.5296 64.1483 15.5296ZM64.1483 13.9005C64.6574 13.9005 65.0732 13.7308 65.3956 13.3914C65.7265 13.0435 65.892 12.5811 65.892 12.0041C65.892 11.4271 65.7265 10.9689 65.3956 10.6296C65.0732 10.2817 64.6574 10.1077 64.1483 10.1077C63.6392 10.1077 63.2192 10.2817 62.8883 10.6296C62.5574 10.9689 62.392 11.4271 62.392 12.0041C62.392 12.5811 62.5574 13.0435 62.8883 13.3914C63.2192 13.7308 63.6392 13.9005 64.1483 13.9005ZM74.4994 11.8514C75.3054 12.1229 75.7085 12.6659 75.7085 13.4805C75.7085 14.0999 75.4751 14.5792 75.0085 14.9186C74.5418 15.258 73.846 15.4277 72.9212 15.4277H69.2685V8.58046H72.7685C73.6254 8.58046 74.2957 8.73743 74.7794 9.05137C75.263 9.35683 75.5048 9.78955 75.5048 10.3496C75.5048 10.6889 75.4157 10.9902 75.2376 11.2532C75.0679 11.5077 74.8218 11.7071 74.4994 11.8514ZM71.0885 11.3932H72.5903C73.286 11.3932 73.6339 11.1471 73.6339 10.655C73.6339 10.1714 73.286 9.92955 72.5903 9.92955H71.0885V11.3932ZM72.7557 14.0786C73.4854 14.0786 73.8503 13.8283 73.8503 13.3277C73.8503 13.0647 73.7654 12.8738 73.5957 12.755C73.426 12.6277 73.1588 12.5641 72.7939 12.5641H71.0885V14.0786H72.7557ZM80.8894 10.7696C81.7803 10.778 82.4633 10.9817 82.9385 11.3805C83.4136 11.7708 83.6512 12.3265 83.6512 13.0477C83.6512 13.8029 83.3839 14.3926 82.8494 14.8168C82.3233 15.2326 81.5809 15.4405 80.6221 15.4405L77.1857 15.4277V8.58046H79.1585V10.7696H80.8894ZM80.4439 14.0277C80.8257 14.0362 81.1185 13.9556 81.3221 13.7859C81.5257 13.6162 81.6275 13.3617 81.6275 13.0223C81.6275 12.6914 81.5257 12.4496 81.3221 12.2968C81.1269 12.1441 80.8342 12.0635 80.4439 12.055L79.1585 12.0423V14.0277H80.4439ZM91.5481 12.0296C91.5481 12.055 91.5353 12.2332 91.5099 12.5641H86.3299C86.4232 12.9883 86.6438 13.3235 86.9917 13.5696C87.3396 13.8156 87.7723 13.9386 88.2899 13.9386C88.6462 13.9386 88.9602 13.8877 89.2317 13.7859C89.5117 13.6756 89.7705 13.5059 90.0081 13.2768L91.0644 14.4223C90.4196 15.1605 89.4777 15.5296 88.239 15.5296C87.4668 15.5296 86.7838 15.3811 86.1899 15.0841C85.5959 14.7786 85.1377 14.3586 84.8153 13.8241C84.4929 13.2896 84.3317 12.6829 84.3317 12.0041C84.3317 11.3338 84.4887 10.7314 84.8026 10.1968C85.125 9.6538 85.562 9.23379 86.1135 8.93683C86.6735 8.63137 87.2971 8.47864 87.9844 8.47864C88.6547 8.47864 89.2614 8.62289 89.8044 8.91137C90.3474 9.19986 90.7717 9.61561 91.0771 10.1586C91.3911 10.6932 91.5481 11.3168 91.5481 12.0296ZM87.9971 9.98046C87.5474 9.98046 87.1699 10.1077 86.8644 10.3623C86.559 10.6168 86.3723 10.9647 86.3044 11.4059H89.6771C89.6093 10.9732 89.4226 10.6296 89.1171 10.375C88.8117 10.112 88.4384 9.98046 87.9971 9.98046Z" fill="#454A52"/>
<path d="M93.7827 15.5296C93.4348 15.5296 93.1421 15.4108 92.9045 15.1732C92.6669 14.9356 92.5481 14.6386 92.5481 14.2823C92.5481 13.9174 92.6669 13.6247 92.9045 13.4041C93.1421 13.175 93.4348 13.0605 93.7827 13.0605C94.1306 13.0605 94.4233 13.175 94.6609 13.4041C94.8984 13.6247 95.0172 13.9174 95.0172 14.2823C95.0172 14.6386 94.8984 14.9356 94.6609 15.1732C94.4233 15.4108 94.1306 15.5296 93.7827 15.5296ZM100.435 8.47864C101.072 8.47864 101.649 8.62713 102.166 8.9241C102.692 9.21258 103.104 9.6241 103.401 10.1586C103.698 10.6847 103.846 11.2999 103.846 12.0041C103.846 12.7083 103.698 13.3277 103.401 13.8623C103.104 14.3883 102.692 14.7999 102.166 15.0968C101.649 15.3853 101.072 15.5296 100.435 15.5296C99.5615 15.5296 98.8743 15.2538 98.3736 14.7023V17.8968H96.3882V8.58046H98.2846V9.36955C98.7767 8.77561 99.4936 8.47864 100.435 8.47864ZM100.092 13.9005C100.601 13.9005 101.017 13.7308 101.339 13.3914C101.67 13.0435 101.835 12.5811 101.835 12.0041C101.835 11.4271 101.67 10.9689 101.339 10.6296C101.017 10.2817 100.601 10.1077 100.092 10.1077C99.5827 10.1077 99.1627 10.2817 98.8318 10.6296C98.5094 10.9689 98.3482 11.4271 98.3482 12.0041C98.3482 12.5811 98.5094 13.0435 98.8318 13.3914C99.1627 13.7308 99.5827 13.9005 100.092 13.9005ZM111.911 8.58046L108.819 15.8477C108.505 16.6368 108.115 17.1926 107.648 17.515C107.19 17.8374 106.634 17.9986 105.981 17.9986C105.624 17.9986 105.272 17.9435 104.924 17.8332C104.576 17.7229 104.292 17.5702 104.071 17.375L104.797 15.9623C104.95 16.098 105.124 16.2041 105.319 16.2805C105.522 16.3568 105.722 16.395 105.917 16.395C106.188 16.395 106.409 16.3271 106.579 16.1914C106.748 16.0641 106.901 15.8477 107.037 15.5423L107.062 15.4786L104.097 8.58046H106.146L108.068 13.2259L110.002 8.58046H111.911Z" fill="#0684F8"/>
<path d="M3.03908 2.74365C3.03908 2.74365 1.89832 9.69179 7.42923 12.5265C12.9255 15.3609 17.6614 13.3214 17.6614 13.3214L4.38745 19.0597C4.38745 19.0597 2.07148 20.3734 0.896032 19.5782C-0.348533 18.8521 0.0664067 16.5015 0.0664067 16.5015L3.03908 2.74365Z" fill="url(#paint0_linear_2001:6237)"/>
<path d="M18.8718 8.55122C18.8718 8.55122 11.6125 4.95626 6.46182 8.44742C1.27673 11.9041 0.205078 15.8449 0.205078 15.8449L2.65927 3.98815C2.65927 3.98815 3.10864 1.1537 4.3532 0.634965C5.59777 0.116226 7.22234 1.49927 7.22234 1.49927L18.8718 8.55122Z" fill="url(#paint1_linear_2001:6237)"/>
<path d="M6.70325 1.15332C6.70325 1.15332 12.4762 5.05942 10.7131 11.1088C8.98478 17.1582 4.17969 19.1977 4.17969 19.1977L17.5228 13.4248C17.5228 13.4248 20.0117 12.6298 20.3228 11.1779C20.6684 9.76071 18.6983 8.44703 18.6983 8.44703L6.70325 1.15332Z" fill="url(#paint2_linear_2001:6237)"/>
<defs>
<linearGradient id="paint0_linear_2001:6237" x1="10.9871" y1="17.7429" x2="0.237279" y2="9.1243" gradientUnits="userSpaceOnUse">
<stop stop-color="#E358DB"/>
<stop offset="1" stop-color="#0C5AF5"/>
</linearGradient>
<linearGradient id="paint1_linear_2001:6237" x1="0.857222" y1="9.35318" x2="13.4675" y2="1.06087" gradientUnits="userSpaceOnUse">
<stop stop-color="#00A6FF"/>
<stop offset="0.044" stop-color="#05ADF9"/>
<stop offset="0.222" stop-color="#14C2E7"/>
<stop offset="0.419" stop-color="#1FD1DA"/>
<stop offset="0.649" stop-color="#25DAD2"/>
<stop offset="0.985" stop-color="#27DDD0"/>
</linearGradient>
<linearGradient id="paint2_linear_2001:6237" x1="12.0179" y1="17.2226" x2="14.02" y2="3.46441" gradientUnits="userSpaceOnUse">
<stop stop-color="#FF33A6"/>
<stop offset="0.147" stop-color="#FF5A96"/>
<stop offset="0.347" stop-color="#FF8884"/>
<stop offset="0.538" stop-color="#FFAD75"/>
<stop offset="0.716" stop-color="#FFC76B"/>
<stop offset="0.875" stop-color="#FFD664"/>
<stop offset="1" stop-color="#FFDC62"/>
</linearGradient>
</defs>
</svg>
